<svg width="71" height="64" viewBox="0 0 71 64" fill="none" xmlns="http://www.w3.org/2000/svg">
<g clip-path="url(#clip0_31_1351)">
<path d="M35.8574 38.7725C39.5297 38.7725 42.5067 35.7404 42.5067 32C42.5067 28.2597 39.5297 25.2275 35.8574 25.2275C32.185 25.2275 29.208 28.2597 29.208 32C29.208 35.7404 32.185 38.7725 35.8574 38.7725Z" fill="#087EA4"/>
<path d="M35.8581 47.2389C54.2198 47.2389 69.1048 40.4166 69.1048 32.0008C69.1048 23.585 54.2198 16.7627 35.8581 16.7627C17.4964 16.7627 2.61133 23.585 2.61133 32.0008C2.61133 40.4166 17.4964 47.2389 35.8581 47.2389Z" stroke="#087EA4" stroke-width="3"/>
<path d="M22.9015 39.6195C32.0823 55.8156 45.3258 65.5341 52.4815 61.3262C59.6373 57.1183 57.9956 40.5775 48.8148 24.3814C39.6339 8.18524 26.3905 -1.53317 19.2348 2.67471C12.079 6.8826 13.7207 23.4233 22.9015 39.6195Z" stroke="#087EA4" stroke-width="3"/>
<path d="M22.9018 24.3813C13.721 40.5775 12.0793 57.1182 19.2351 61.3261C26.3908 65.534 39.6343 55.8156 48.8151 39.6194C57.9959 23.4233 59.6376 6.88254 52.4818 2.67465C45.3261 -1.53323 32.0827 8.18518 22.9018 24.3813Z" stroke="#087EA4" stroke-width="3"/>
</g>
<defs>
<clipPath id="clip0_31_1351">
<rect width="69.8182" height="64" fill="white" transform="translate(0.948242)"/>
</clipPath>
</defs>
</svg>
